<svg xmlns="http://www.w3.org/2000/svg" xmlns:xlink="http://www.w3.org/1999/xlink" width="895.727" height="900.001" viewBox="0 0 895.727 900.001"><defs><linearGradient id="a" x1="0.435" y1="1.598" x2="0.415" gradientUnits="objectBoundingBox"><stop offset="0" stop-color="#ff4c4d"/><stop offset="1" stop-color="#ff894d"/></linearGradient></defs><path d="M-1094.272,935h-892.134a350.407,350.407,0,0,1-3.461-39.858,323.426,323.426,0,0,1,1.077-37.245,309.3,309.3,0,0,1,5.02-34.637,305.452,305.452,0,0,1,8.368-32.035c11.612-36.258,30.13-70.655,55.041-102.237a371.638,371.638,0,0,1,32.125-35.657,374.939,374.939,0,0,1,28.844-25.412c16.893-13.39,28.675-20.207,28.792-20.274.222-.141,22.56-14.383,56.222-37.424,19.79-13.545,39.578-27.446,58.816-41.317,24.049-17.339,47.3-34.677,69.1-51.531,55.5-42.906,102.093-82.988,138.481-119.133,45.486-45.182,75.066-84.3,87.92-116.282,12.894-32.018,20.332-62.822,22.109-91.557,1.421-22.987-.757-44.709-6.475-64.562a153.747,153.747,0,0,0-8.336-22.369A131.949,131.949,0,0,0-1421.5,47.6a82.324,82.324,0,0,0-9.688-12.6h336.918V935Z" transform="translate(1989.999 -35)" fill="url(#a)"/></svg>