<svg xmlns="http://www.w3.org/2000/svg" xmlns:xlink="http://www.w3.org/1999/xlink" width="60.438" height="68.799" viewBox="0 0 60.438 68.799"><defs><radialGradient id="a" cx="178.677" cy="54.087" r="44.737" gradientTransform="translate(-9.332 -7.476) scale(1.138 1.138)" gradientUnits="userSpaceOnUse"><stop offset="0" stop-color="#ff2a41"/><stop offset="0.32" stop-color="#ff3f45"/><stop offset="1" stop-color="#ffb143"/></radialGradient></defs><path d="M171.44,40.5c0,.338,0,.694-.018,1.033a18.756,18.756,0,0,1-8.263,14.46,19.177,19.177,0,0,1-11.806,3.027c-.8-.053-3.935-.142-4.4-.855-.641-.962,3.615-6.233,4.381-7.426a18.622,18.622,0,0,0-12.091,17.451,1.35,1.35,0,0,1-.071.659c-1.5-2.03-2.475-3.935-4.63-5.5a26.907,26.907,0,0,0-6.82-3.419c-3.864-1.371-7.96-2.386-11.2-4.879-6.126-4.7-7.675-13.908-1.977-19.606a12.4,12.4,0,0,1,8.779-3.633,11.4,11.4,0,0,1,7.817,2.814c-1.709,2.885-2.226,6.642.73,9.046a6.427,6.427,0,0,0,8.637-.784A5.737,5.737,0,0,0,141.88,38.7c-.214-2.386-1.959-4.309-3.526-6.108a34.776,34.776,0,0,1-6.3-9.794,16.906,16.906,0,0,1-.57-11.45,16.3,16.3,0,0,1,6.072-7.728,25.966,25.966,0,0,1,4.541-2.582c.267-.125,4.986-1.585,4.648-.712-.427,1.086-1.905,2.1-2.582,3.188a9.774,9.774,0,0,0,.873,11.308c2.368,2.992,5.876,4.808,9.384,6.339,3.49,1.514,7.141,2.867,10.115,5.235A18.294,18.294,0,0,1,171.44,40.5Z" transform="translate(-111.003 -0.047)" fill="url(#a)"/></svg>