<svg xmlns="http://www.w3.org/2000/svg" xmlns:xlink="http://www.w3.org/1999/xlink" width="907.008" height="452.076" viewBox="0 0 907.008 452.076"><defs><radialGradient id="a" cx="453.483" cy="-302.966" r="9643.49" gradientTransform="translate(432.034 -519.279) scale(0.047 0.003)" gradientUnits="userSpaceOnUse"><stop offset="0.005" stop-color="#77d6ec"/><stop offset="1" stop-color="#fff"/></radialGradient><filter id="b" x="787.546" y="86.052" width="97.179" height="189.056" filterUnits="userSpaceOnUse"><feOffset dy="3" input="SourceAlpha"/><feGaussianBlur stdDeviation="3" result="c"/><feFlood flood-opacity="0.161"/><feComposite operator="in" in2="c"/><feComposite in="SourceGraphic"/></filter><clipPath id="d"><path d="M293.071,183.186A66.886,66.886,0,1,1,226.186,116.3,66.822,66.822,0,0,1,293.071,183.186Z" transform="translate(-159.3 -116.3)"/></clipPath><filter id="e" x="375.856" y="124.393" width="92.648" height="211.607" filterUnits="userSpaceOnUse"><feOffset dy="3" input="SourceAlpha"/><feGaussianBlur stdDeviation="3" result="f"/><feFlood flood-opacity="0.161"/><feComposite operator="in" in2="f"/><feComposite in="SourceGraphic"/></filter><filter id="g" x="548.14" y="179.32" width="95.708" height="195.054" filterUnits="userSpaceOnUse"><feOffset dy="3" input="SourceAlpha"/><feGaussianBlur stdDeviation="3" result="h"/><feFlood flood-opacity="0.161"/><feComposite operator="in" in2="h"/><feComposite in="SourceGraphic"/></filter><filter id="i" x="83.39" y="143.475" width="123.203" height="186.738" filterUnits="userSpaceOnUse"><feOffset dy="3" input="SourceAlpha"/><feGaussianBlur stdDeviation="3" result="j"/><feFlood flood-opacity="0.161"/><feComposite operator="in" in2="j"/><feComposite in="SourceGraphic"/></filter></defs><g transform="translate(32.598 251.327)"><g transform="translate(4.729)"><path d="M33.248,155.318c-.676,3.209.338,7.094-.169,10.472-.676,4.223-3.378,5.4-5.236,8.107-2.2,3.209-3.04,8.952-2.365,14.019a71.86,71.86,0,0,0,2.365,8.614,19.357,19.357,0,0,1,.676,9.29c-1.013,4.391-6.418,7.938-6.418,26.856,0,17.228,12.33,23.984,15.877,28.207V148.9l-1.52,1.52A7.064,7.064,0,0,0,33.248,155.318Z" transform="translate(-22.1 -148.731)" fill="#330f49"/><path d="M41.265,196.431a64.116,64.116,0,0,0,2.365-8.614c.845-5.067-.169-10.979-2.365-14.019-1.858-2.7-4.391-3.885-5.236-8.107-.507-3.378.507-7.263-.169-10.472a9.413,9.413,0,0,0-3.04-4.9L31.3,148.8V260.783c3.547-4.223,15.877-10.979,15.877-28.207,0-18.917-5.4-22.464-6.418-26.856C39.914,202.849,40.421,199.3,41.265,196.431Z" transform="translate(-15.761 -148.8)" fill="#330f49"/></g><g transform="translate(18.339 67.054)"><path d="M48.3,190.358c-1.013,1.182-.507,3.04-1.351,4.391-1.013,1.689-3.378,1.52-5.236,2.2a5.889,5.889,0,0,0-3.547,5.4,17.816,17.816,0,0,0,1.013,4.054,4.8,4.8,0,0,1-.507,4.054c-1.351,1.689-6.249,2.027-8.276,9.965-1.858,7.263,7.6,12.837,9.965,15.37L52.693,188.5l-1.52.338A5.919,5.919,0,0,0,48.3,190.358Z" transform="translate(-30.158 -188.5)" fill="#a380b9"/><path d="M50.626,196.776c-.169-1.52,1.182-3.04,1.013-4.56a4.065,4.065,0,0,0-2.027-2.7L48.43,188.5,36.1,235.793c3.378-1.013,14.357-1.182,16.215-8.445,2.027-7.938-2.027-10.641-2.365-12.668a4.623,4.623,0,0,1,1.52-3.716,16.184,16.184,0,0,0,2.871-3.04A5.9,5.9,0,0,0,54,201.506C52.821,199.817,50.795,198.8,50.626,196.776Z" transform="translate(-26.064 -188.5)" fill="#a380b9"/></g><path d="M19.3,213.5s7.6,8.276,7.6,13.85a21.992,21.992,0,0,1-1.351,6.249,12.4,12.4,0,0,0,11.823,16.215H57.641A12.448,12.448,0,0,0,69.464,233.6a21.992,21.992,0,0,1-1.351-6.249c0-5.574,7.77-13.85,7.77-13.85Z" transform="translate(-19.3 -104.22)" fill="#fff"/></g><g transform="translate(0 375.978)"><path d="M453.5,222.6C203.021,222.6,0,232.227,0,244.051S203.021,265.5,453.5,265.5s453.5-9.627,453.5-21.451S703.987,222.6,453.5,222.6Z" transform="translate(0 -222.6)" fill="url(#a)"/></g><g transform="translate(733.376 45.137)"><g transform="translate(0 57.5)"><path d="M439.1,97.693c-.169.676,2.2,2.2,2.7,2.2,1.52-.338,1.351-1.351,2.871-1.52a11.609,11.609,0,0,1-4.054-.845C440.117,97.356,439.441,96.849,439.1,97.693Z" transform="translate(-430.827 -35.65)" fill="#fcd2c5"/><path d="M449.232,97.9c-1.52.169-3.04.507-4.729.845a61.583,61.583,0,0,0-6.081,2.027,35.034,35.034,0,0,0-3.378,1.351,3.707,3.707,0,0,0-.845,2.027c0,.676.845.845.845.845-.169.844,2.2.844,2.2,1.013-.338.845.844,1.689,3.885.338.169,0,8.445-1.52,10.979-2.2A38.345,38.345,0,0,0,449.232,97.9Z" transform="translate(-434.2 -35.181)" fill="#fcd2c5"/><path d="M486.308,85.805a4.93,4.93,0,0,0-1.52.338c-7.6,2.871-33.612,18.41-41.888,20.1a28.861,28.861,0,0,1,2.2,6.418c13.681-3.209,46.786-14.863,47.124-20.437C492.389,87.156,488.842,85.636,486.308,85.805Z" transform="translate(-428.206 -43.523)" fill="#fcd2c5"/><path d="M485.915,62.046c-4.223,6.08-12.33,28.882-18.241,39.017-7.263,12.5,4.054,13.006,7.432,9.965,8.952-8.107,29.9-34.287,26.349-39.523C499.765,69.309,486.759,60.864,485.915,62.046Z" transform="translate(-412.78 -59.963)" fill="#fcd2c5"/><path d="M442.6,121.8c4.9-1.013,34.794-16.89,37.834-18.41.338-.844,7.6-15.539,10.979-23.309s6.756-15.877,8.952-19.086c.338-.507.507,0,1.182,0,2.871-.169,14.863,8.107,16.552,10.3,5.067,6.925-19.086,34.963-26.518,41.55-6.925,6.418-34.456,15.708-46.448,18.579Z" transform="translate(-428.412 -60.767)" fill="#e4eef9"/></g><path d="M500.266,203.071,495.03,200.2s-1.182,1.689-2.027,2.7c-1.858,2.027-10.3,3.547-10.3,6.587,0,1.52,3.209,2.871,5.743,3.04a16.422,16.422,0,0,0,6.249-.845c1.52-.507,5.067-1.858,5.574-2.871a4.131,4.131,0,0,0,.169-3.547A4.277,4.277,0,0,0,500.266,203.071Z" transform="translate(-400.782 92.807)" fill="#e4eef9"/><path d="M488.7,203.14a7.719,7.719,0,0,0,3.04,2.871c1.182.676,4.392-.507,4.392-.507a18.56,18.56,0,0,0,.169-4.054l-7.094-1.351A2.661,2.661,0,0,1,488.7,203.14Z" transform="translate(-396.648 92.738)" fill="#fcd2c5"/><path d="M485.368,101.3c4.223,1.858,22.633,3.716,35.3,2.871v33.1c-2.534,2.027-16.89,39.523-23.14,61.143-.169.676,8.952,64.352,8.952,71.277-2.534,2.871-7.769,0-7.769-.169,0,0-19.931-32.26-23.14-71.277C471.856,152.984,484.862,104.847,485.368,101.3Z" transform="translate(-406.153 24.662)" fill="#330840"/><path d="M523.66,203.234l-5.4-2.534a22.608,22.608,0,0,1-1.858,2.871c-1.689,2.2-9.965,4.392-9.8,7.432.169,1.52,3.378,2.534,5.912,2.534,2.534-.169,4.9-.338,6.08-1.351,1.689-1.182,4.9-2.365,5.4-3.209a4.535,4.535,0,0,0,0-3.547A4.463,4.463,0,0,0,523.66,203.234Z" transform="translate(-384.316 93.151)" fill="#e4eef9"/><path d="M512.3,203.646a9.482,9.482,0,0,0,3.209,2.7c1.182.507,4.391-.845,4.391-.845a32.074,32.074,0,0,0,0-4.223l-6.925-.676C513.145,200.436,513.482,201.956,512.3,203.646Z" transform="translate(-380.387 93.077)" fill="#fcd2c5"/><path d="M495.2,106.247c4.222-5.574,20.1-11.654,31.078-7.094,15.708,30.065-5.067,73.979-7.77,102.186,0,0,14.863,39.017,14.863,71.108-2.365,3.04-7.6.676-7.769.338,0-13.006-26.011-45.942-28.882-69.588C491.148,158.1,495.032,109.962,495.2,106.247Z" transform="translate(-393.184 22.08)" fill="#330840"/><path d="M496.63,45.5c-.845.676-9.627,6.418-12.33,6.081,0,.676,2.365,8.276.845,12.5,1.013,3.716,11.654,3.04,14.019-3.547C497.981,58.843,496.292,49.047,496.63,45.5Z" transform="translate(-399.68 -13.786)" fill="#fcd2c5"/><path d="M489.55,38.4c-4.9,0-9.458,1.351-10.134,6.081-.338,1.689,1.351,16.215,9.29,17.9,3.378.676,9.29-5.4,9.29-9.29v-5.4C498.165,42.623,494.787,38.4,489.55,38.4Z" transform="translate(-403.072 -18.678)" fill="#fcd2c5"/><g transform="matrix(1, 0, 0, 1, -733.38, -45.14)" filter="url(#b)"><path d="M480.214,82.369c.169,2.365,2.7,12.161,2.871,27.193.338,43.915-10.134,85.3-11.485,96.781,2.534,17.228,41.212,25,64.352,14.357l4.729-23.477,1.351,22.3c1.52-.338,4.729-.338,5.912-.507,4.223-69.588,8.276-148.466-23.815-162.316-2.533-1.182-16.046-2.2-16.046-2.2s-5.4,5.236-9.121,5.912c-2.534.338-4.9-2.2-4.9-2.2s-9.121,3.378-10.81,4.56C477,66.661,479.707,75.106,480.214,82.369Z" transform="translate(324.95 37.55)" fill="#fff"/></g><path d="M488.007,77.3s15.2-15.032,25.335-20.775a21.157,21.157,0,0,0-5.4-1.351c-1.351-.169-5.574-.676-5.574-.676s-5.4,5.4-9.121,5.912c-2.534.338-4.9-2.2-4.9-2.2a77.079,77.079,0,0,0-8.445,3.378C480.913,68.857,488.007,77.3,488.007,77.3Z" transform="translate(-402.711 -7.585)" fill="#330840"/><path d="M475.8,44.765c0,2.2,2.027,7.77,23.309,3.04,2.533,3.716,3.547,11.823,3.547,11.823,6.249-5.574,7.432-18.073,0-24.66C493.028,26.354,476.138,34.631,475.8,44.765Z" transform="translate(-405.537 -23.523)" fill="#330840"/><path d="M491.9,42.7a5.367,5.367,0,0,0-2.2.338,58.921,58.921,0,0,0,1.182,6.249,4.493,4.493,0,0,0,3.209-3.04C494.091,44.9,493.078,42.869,491.9,42.7Z" transform="translate(-395.959 -15.715)" fill="#fcd2c5"/><g transform="translate(73.304)"><path d="M496.855,28.542c-7.938-2.365-15.032-2.365-15.539-.338,0,0-3.378,11.654-3.716,12.5.169-.507,6.756,1.013,14.695,3.378s14.357,4.56,14.188,5.067c.338-.845,3.716-12.5,3.716-12.5C510.874,34.453,504.793,30.906,496.855,28.542Z" transform="translate(-477.6 -26.724)" fill="#e4eef9"/></g></g><g transform="translate(682.03 135.122)"><g transform="translate(17.566 66.041)"><path d="M484.97,184.634a30.571,30.571,0,1,1-61.143,0V119.1H414.2v65.534a40.2,40.2,0,0,0,80.4,0V142.24H484.97v42.395Z" transform="translate(-414.2 -119.1)" fill="#e4eef9"/></g><g transform="translate(0 33.781)"><path d="M426.264,100a22.464,22.464,0,1,0,22.464,22.464A22.454,22.454,0,0,0,426.264,100Z" transform="translate(-403.8 -100)" fill="#d2dbeb"/></g><g transform="translate(5.236 39.185)"><path d="M424.128,103.2a17.228,17.228,0,1,0,17.228,17.228A17.192,17.192,0,0,0,424.128,103.2Z" transform="translate(-406.9 -103.2)" fill="#f6f4f6"/></g><g transform="translate(10.472 46.786)"><path d="M427.735,107.7a6.316,6.316,0,0,0-5.574,3.209,6.679,6.679,0,0,0-5.574-3.209A6.49,6.49,0,0,0,410,114.287a6.376,6.376,0,0,0,2.2,4.9l9.29,9.29c.169.169.338.169.676.169.169,0,.507-.169.676-.169l9.29-9.29a6.579,6.579,0,0,0-4.391-11.485Z" transform="translate(-410 -107.7)" fill="#ff894d"/></g><g transform="translate(17.059 51.515)"><path d="M424.541,114.385h-3.378v-3.378a.448.448,0,0,0-.507-.507h-2.365a.448.448,0,0,0-.507.507v3.378h-3.378a.448.448,0,0,0-.507.507v2.365a.448.448,0,0,0,.507.507h3.378v3.378a.448.448,0,0,0,.507.507h2.365a.448.448,0,0,0,.507-.507v-3.378h3.378a.448.448,0,0,0,.507-.507v-2.365Q424.794,114.385,424.541,114.385Z" transform="translate(-413.9 -110.5)" fill="#fff"/></g><g transform="translate(64.859 65.703)"><path d="M470.576,139.506A20.58,20.58,0,0,1,449.97,118.9H442.2a28.545,28.545,0,1,0,57.089,0h-7.77A21.207,21.207,0,0,1,470.576,139.506Z" transform="translate(-442.2 -118.9)" fill="#e4eef9"/></g><g transform="translate(64.69 3.378)"><path d="M442.1,110.545v33.612h7.769V110.545a20.58,20.58,0,0,1,20.606-20.606V82A28.583,28.583,0,0,0,442.1,110.545Z" transform="translate(-442.1 -82)" fill="#d2dbeb"/></g><g transform="translate(93.234 10.81)"><path d="M459,86.4v7.77a20.58,20.58,0,0,1,20.606,20.606v26.349h7.77V114.776A28.222,28.222,0,0,0,459,86.4Z" transform="translate(-459 -86.4)" fill="#d2dbeb"/></g><g transform="translate(85.803)"><path d="M462.032,80a7.432,7.432,0,1,0,7.432,7.432A7.389,7.389,0,0,0,462.032,80Z" transform="translate(-454.6 -80)" fill="#330840"/></g><g transform="translate(85.803 7.432)"><path d="M462.032,84.4a7.432,7.432,0,1,0,7.432,7.432A7.389,7.389,0,0,0,462.032,84.4Z" transform="translate(-454.6 -84.4)" fill="#330840"/></g></g><g transform="translate(771.379 104.72)"><path d="M517.045,72.6c-.676,10.3-33.949,41.212-32.936,44.59,9.628.507,21.113-2.534,22.8-4.223,1.52-1.52,18.748-23.984,23.815-35.132C534.442,69.726,517.383,67.024,517.045,72.6Z" transform="translate(-437.83 -56.721)" fill="#d3e1ea"/><path d="M461.7,97.793c-.169.676,2.027,2.2,2.7,2.2,1.52-.338,1.351-1.351,2.871-1.351a14.608,14.608,0,0,1-3.885-1.013C462.717,97.456,462.042,96.949,461.7,97.793Z" transform="translate(-453.259 -37.664)" fill="#fcd2c5"/><path d="M467.341,98.845a50.721,50.721,0,0,0-6.25,1.858c-.844.338-2.871.845-3.378,1.351a4.026,4.026,0,0,0-1.013,1.858c0,.676.844,1.013.844,1.013-.169.845,2.2.845,2.027,1.013-.338.845.676,1.689,3.885.507.169,0,8.445-1.351,10.979-2.027A33.29,33.29,0,0,0,471.9,98,43.2,43.2,0,0,0,467.341,98.845Z" transform="translate(-456.7 -37.195)" fill="#fcd2c5"/><path d="M525.936,62a1.774,1.774,0,0,0-1.52.845c-2.365,3.209-5.574,10.3-9.121,18.073s-7.263,15.708-10.3,20.606a18.448,18.448,0,0,0-1.351,2.534c-3.209,1.52-7.432,3.547-11.823,5.743-9.627,4.729-21.789,10.81-26.518,11.654l2.7,9.8c12.161-2.534,39.692-11.148,46.955-17.4,7.432-6.418,32.26-33.781,27.531-40.874C540.631,70.445,528.807,62,525.936,62Z" transform="translate(-450.774 -62)" fill="#fff"/></g><g transform="translate(210.622)"><path d="M124.7,345.539a28.689,28.689,0,0,0,28.713,28.714h34.118V32.9H153.413A28.689,28.689,0,0,0,124.7,61.613Z" transform="translate(-124.7 22.669)" fill="#a380b9"/><g transform="translate(186.638)"><path d="M254.286,57.934V25.5a6.415,6.415,0,0,1,6.418-6.418h81.918a6.415,6.415,0,0,1,6.418,6.418V57.934h19.086V25.5A25.59,25.59,0,0,0,342.622,0H260.7a25.59,25.59,0,0,0-25.5,25.5V57.934h19.086Z" transform="translate(-235.2)" fill="#a380b9"/></g><g transform="translate(351.656 40.199)"><path d="M348.27,54.54h39.523a15.426,15.426,0,0,0,15.37-15.37h0a15.426,15.426,0,0,0-15.37-15.37H348.27A15.426,15.426,0,0,0,332.9,39.17h0A15.426,15.426,0,0,0,348.27,54.54Z" transform="translate(-332.9 -23.8)" fill="#a380b9"/></g><g transform="translate(84.114 40.199)"><path d="M189.87,54.54h39.523a15.426,15.426,0,0,0,15.37-15.37h0a15.426,15.426,0,0,0-15.37-15.37H189.87A15.426,15.426,0,0,0,174.5,39.17h0A15.426,15.426,0,0,0,189.87,54.54Z" transform="translate(-174.5 -23.8)" fill="#a380b9"/></g><path d="M568.807,32.9H165.129A24.869,24.869,0,0,0,140.3,57.729v291.7a24.869,24.869,0,0,0,24.829,24.829H568.807a24.869,24.869,0,0,0,24.829-24.829V57.729A24.869,24.869,0,0,0,568.807,32.9Z" transform="translate(-113.951 22.669)" fill="#e4eef9"/><path d="M571.257,340.465a11.317,11.317,0,0,1-11.317,11.316H160.316A11.317,11.317,0,0,1,149,340.465V52.316A11.317,11.317,0,0,1,160.316,41H559.941a11.317,11.317,0,0,1,11.317,11.316Z" transform="translate(-107.957 28.25)" fill="#330f49"/><g transform="translate(58.44 196.434)"><g clip-path="url(#d)"><path d="M352.934,113.2l1.182,142.385H136.4L137.413,113.2Z" transform="translate(-175.079 -118.436)" fill="#fff"/><path d="M201.3,156.812l1.858-41.212h27.7l-1.182,32.6h0Z" transform="translate(-130.361 -116.782)" fill="#d2dbeb"/><path d="M139.3,165.9h26.687L164.8,197.147H139.3Z" transform="translate(-173.081 -82.124)" fill="#d2dbeb"/><path d="M139.407,162.217v38.341h26.856l-1.182,31.247h-25.5v16.552H347.326v-33.1H327.565V200.558h19.762v-7.77H327.565V173.534h19.593v-38.51a25.9,25.9,0,0,1-19.593,12.668l.169-32.092H273.516l-1.182,32.6h0l-28.376,8.614,1.858-41.212h-5.574l-1.013,17.228H207.475c.169-3.716.507-7.432.845-10.472.169-3.04.507-5.574.507-6.756H138.9ZM262.03,231.805H232.3l1.351-29.558A92.91,92.91,0,0,0,262.706,213.9Zm-21.282-67.054L275.2,154.11h46.448l-.338,23.478H217.947l1.182-13.006h21.62Z" transform="translate(-173.356 -116.782)" fill="#d3e1ea"/><path d="M180.545,122.356c-.169,3.04-.507,6.756-.845,10.472h31.754l1.013-17.228H181.051C181.051,116.782,180.882,119.316,180.545,122.356Z" transform="translate(-145.244 -116.782)" fill="#d2dbeb"/><path d="M250.8,147.692a25.9,25.9,0,0,0,19.593-12.668V115.6H250.8Z" transform="translate(-96.254 -116.782)" fill="#d2dbeb"/><path d="M250.7,180.595h19.762V165.9H250.7Z" transform="translate(-96.323 -82.124)" fill="#d2dbeb"/><path d="M250.7,169.086h19.762V150H250.869Z" transform="translate(-96.323 -93.08)" fill="#d2dbeb"/><g transform="translate(-33.949 -1.351)"><path d="M327.7,147.76l.169-32.092h-5.743l-.507,32.26h-43.07l.676-32.26h-5.574l-1.182,32.6h0l-28.376,8.614,1.858-41.212h-5.574L239.359,132.9H207.606c.169-3.716.507-7.432.845-10.472.169-3.04.507-5.574.507-6.756h-5.574c-.507,4.729-2.534,28.038-2.871,36.821-.169,4.223,1.013,7.6,3.209,9.8a9.649,9.649,0,0,0,6.925,2.7h2.027l-2.027,20.268H320.939L320.6,207.89H281.923c-28.713,0-47.631-14.188-47.8-14.357l-.845-.676H173.15l.338-13.85h0c7.263-.676,14.526-3.209,15.2-8.783.676-5.912-7.094-8.276-14.695-8.614l1.182-46.11H169.6l-1.182,30.234c-14.863,3.04-23.646,9.965-29.051,16.384v12.33c1.013-2.871,6.756-17.059,28.713-21.788l-.507,9.29a25.935,25.935,0,0,0-9.29,2.534c-2.7,1.351-4.56,3.209-5.067,5.912-1.182,5.912,6.249,8.445,13.681,8.952l-.507,13.681H139.2v7.77h26.856l-1.182,31.247h-25.5v9.121h25.167L164.2,248.6h7.432l.169-7.432h52.7l-.507,7.432h7.263l.338-7.432h29.727l-.338,7.432h7.263l.169-7.432h51.346l-.169,7.432h7.432v-7.432h19.762v-9.121H327.02V224.1h19.762V215.49H327.02V200.8h19.762v-7.77H327.02V173.772h19.593v-6.925H327.02v-12.5a33.677,33.677,0,0,0,11.823-3.04,31.153,31.153,0,0,0,7.77-5.236v-10.81C347.119,135.6,341.546,146.071,327.7,147.76ZM173.656,168.535a20.21,20.21,0,0,1,7.6,1.689,26.946,26.946,0,0,1-7.6,1.689h0Zm-6.418,3.378a20.213,20.213,0,0,1-6.756-1.689,21.455,21.455,0,0,1,6.756-1.689ZM225,231.874H172.136l.844-31.247H227.03Zm36.821,0H232.1l1.351-29.558A92.911,92.911,0,0,0,262.5,213.97Zm58.271,0H268.917l.507-16.721a104.194,104.194,0,0,0,13.006,1.013h37.834ZM211.153,158.232h-.169c-1.013,0-4.223-.169-4.223-6.249,0-3.04.338-7.938.676-13.174h31.754l-1.182,19.255H211.153Zm109.956,19.593H217.74l1.182-13.006h21.62L275,154.179h46.448Z" transform="translate(-139.2 -115.5)" fill="#fff"/></g><path d="M194.2,196.527h29.727l.676-18.073A92.912,92.912,0,0,1,195.551,166.8Z" transform="translate(-135.253 -81.504)" fill="#d2dbeb"/><path d="M208.5,148.972h-21.62L185.7,161.978H289.069l.507-23.478H242.958Z" transform="translate(-141.11 -101.004)" fill="#d2dbeb"/></g></g><g transform="translate(105.733 227.343)"><path d="M213.987,134.6c-12.668,0-26.687,9.8-26.687,26.349,0,25,26.687,51.515,26.687,51.515s26.687-26.856,26.687-51.515C240.842,144.565,225.979,134.6,213.987,134.6Zm9.121,41.888a16.4,16.4,0,0,1-8.952,2.365,16.6,16.6,0,0,1-11.654-4.56c-10.3-9.459-6.249-31.416,11.654-31.416C233.579,143.045,236.62,168.718,223.107,176.488Z" transform="translate(-187.3 -134.6)" fill="#330f49" fill-rule="evenodd"/><g transform="translate(16.046 15.032)"><path d="M217.237,150.932H210.65v-6.587a.8.8,0,0,0-.845-.844h-4.729a.946.946,0,0,0-1.013.844v6.587h-6.418c-.507,0-.845.338-.845,1.013v4.56a.8.8,0,0,0,.845.845h6.418v6.587a.974.974,0,0,0,1.013,1.013h4.729c.507,0,.845-.338.845-1.013V157.35h6.587a.8.8,0,0,0,.845-.845v-4.56A.846.846,0,0,0,217.237,150.932Z" transform="translate(-196.8 -143.5)" fill="#ff4c4d"/></g></g><g transform="translate(204.879 87.829)"><path d="M454.933,60.276H434.664a1.27,1.27,0,0,0-1.182.845L429.26,73.957l-6.587-21.113A1.337,1.337,0,0,0,421.321,52c-.676,0-1.182.338-1.182.845l-6.081,27.193-5.574-27.193A1.125,1.125,0,0,0,407.3,52h-.169a1.422,1.422,0,0,0-1.182.676l-5.574,13.343H369.3a1.27,1.27,0,0,0-1.182.845L363.894,79.7l-6.756-20.944a1.337,1.337,0,0,0-1.351-.845c-.676,0-1.182.338-1.182.845l-6.081,27.193L342.95,58.756a1.125,1.125,0,0,0-1.182-.845H341.6a1.422,1.422,0,0,0-1.182.676l-5.574,13.343H292.617a1.422,1.422,0,0,0-1.182.676L287.212,82.74,281.3,53.689a1.27,1.27,0,0,0-1.182-.845h0a1.337,1.337,0,0,0-1.351.845l-6.249,28.376L266.1,61.8a1.27,1.27,0,0,0-1.182-.845h0a1.27,1.27,0,0,0-1.182.845L258.5,77.673H246v2.2h13.343a1.27,1.27,0,0,0,1.182-.845l4.223-12.837,6.587,21.282a1.337,1.337,0,0,0,1.351.845c.676,0,1.182-.338,1.182-.845l6.08-27.193,5.574,27.193a1.125,1.125,0,0,0,1.182.845h.169a1.422,1.422,0,0,0,1.182-.676L293.631,74.3h42.226a1.422,1.422,0,0,0,1.182-.676l4.223-10.134,5.912,29.051a1.27,1.27,0,0,0,1.182.845h0a1.337,1.337,0,0,0,1.351-.845l6.249-28.376,6.418,20.268a1.27,1.27,0,0,0,1.182.845h0a1.27,1.27,0,0,0,1.182-.845l5.236-15.877h31.247a1.422,1.422,0,0,0,1.182-.676l4.223-10.134,5.912,29.051a1.27,1.27,0,0,0,1.182.845h0a1.337,1.337,0,0,0,1.351-.845l6.249-28.376,6.418,20.268a1.27,1.27,0,0,0,1.182.845h0a1.27,1.27,0,0,0,1.182-.845L435.34,62.81H454.6a1.305,1.305,0,0,0,1.351-1.182C456.284,60.783,455.777,60.276,454.933,60.276Z" transform="translate(-246 -52)" fill="#d2dbeb"/></g><g transform="translate(204.879 136.136)"><path d="M454.933,88.876H434.664a1.27,1.27,0,0,0-1.182.844l-4.223,12.837-6.587-21.113a1.337,1.337,0,0,0-1.351-.845c-.676,0-1.182.338-1.182.845l-6.081,27.193-5.574-27.193A1.125,1.125,0,0,0,407.3,80.6h-.169a1.422,1.422,0,0,0-1.182.676l-5.574,13.343H369.3a1.27,1.27,0,0,0-1.182.845L363.894,108.3l-6.587-21.113a1.337,1.337,0,0,0-1.351-.845c-.676,0-1.182.338-1.182.845l-6.081,27.193-5.574-27.193a1.125,1.125,0,0,0-1.182-.845h-.169a1.422,1.422,0,0,0-1.182.676l-5.574,13.343H292.786a1.422,1.422,0,0,0-1.182.676l-4.223,10.134L281.47,82.12a1.27,1.27,0,0,0-1.182-.845h0a1.337,1.337,0,0,0-1.351.845L272.687,110.5l-6.418-20.268a1.27,1.27,0,0,0-1.182-.845h0a1.27,1.27,0,0,0-1.182.845L258.668,106.1H246v2.2h13.343a1.27,1.27,0,0,0,1.182-.845l4.223-12.837,6.587,21.113a1.337,1.337,0,0,0,1.351.845c.676,0,1.182-.338,1.182-.845l6.081-27.193,5.574,27.193a1.125,1.125,0,0,0,1.182.845h.169a1.422,1.422,0,0,0,1.182-.676l5.574-13.343h42.226a1.422,1.422,0,0,0,1.182-.676l4.223-10.134,5.912,29.051a1.27,1.27,0,0,0,1.182.844h0a1.337,1.337,0,0,0,1.351-.844l6.249-28.376,6.418,20.268a1.27,1.27,0,0,0,1.182.845h0a1.27,1.27,0,0,0,1.182-.845l5.236-15.877h31.247a1.422,1.422,0,0,0,1.182-.676L406.627,86l5.912,29.051a1.27,1.27,0,0,0,1.182.845h0a1.337,1.337,0,0,0,1.351-.845l6.249-28.376,6.418,20.268a1.27,1.27,0,0,0,1.182.845h0a1.27,1.27,0,0,0,1.182-.845l5.236-15.877H454.6a1.305,1.305,0,0,0,1.351-1.182C456.284,89.383,455.777,88.876,454.933,88.876Z" transform="translate(-246 -80.6)" fill="#d2dbeb"/></g><g transform="translate(71.784 87.829)"><path d="M271.582,77a28.64,28.64,0,0,0-.676-3.716c-.169-.845-.507-1.689-.676-2.534h0a27.817,27.817,0,0,0-7.77-11.654,37.084,37.084,0,0,0-3.04-2.365,27.683,27.683,0,0,0-9.459-4.054,12.858,12.858,0,0,0-3.547-.507A15.453,15.453,0,0,0,243.544,52a26.014,26.014,0,0,0-7.263,1.013c-1.013.338-2.2.676-3.209,1.013a23.874,23.874,0,0,0-5.743,3.209,32.378,32.378,0,0,0-3.716,3.04c-.169.169-4.223,5.236-4.223,5.236s-2.2-3.04-3.378-4.391a7.8,7.8,0,0,0-1.182-1.182,26.651,26.651,0,0,0-9.8-6.081c-1.013-.338-2.2-.676-3.209-1.013a26.711,26.711,0,0,0-6.418-.676,24.946,24.946,0,0,0-3.547.169,19.923,19.923,0,0,0-3.378.676,25.644,25.644,0,0,0-9.459,4.391,24.7,24.7,0,0,0-3.209,2.7,27.8,27.8,0,0,0-7.6,12.668h0a28.449,28.449,0,0,0-1.013,7.6,35.562,35.562,0,0,0,.338,4.223,19.194,19.194,0,0,0,1.013,4.223,20.466,20.466,0,0,0,3.04,6.418c1.52,2.365,48.137,47.631,48.137,47.631s45.266-43.577,46.279-44.928c.338-.507,1.013-1.351,1.013-1.351a27.81,27.81,0,0,0,4.9-11.992h0a35.562,35.562,0,0,0,.338-4.223A10.63,10.63,0,0,1,271.582,77Z" transform="translate(-167.2 -52)" fill="#ff4c4d"/><g transform="translate(3.885 16.552)"><path d="M271.348,89.162H236.892a1.941,1.941,0,0,0-1.52,1.013l-5.236,14.695-7.263-41.719a1.8,1.8,0,0,0-1.52-1.351h0a1.479,1.479,0,0,0-1.52,1.351l-7.77,40.874-7.938-29.22a1.622,1.622,0,0,0-1.52-1.182h0a1.622,1.622,0,0,0-1.52,1.182l-6.418,22.8H171.02a1.52,1.52,0,0,0,0,3.04h24.829a1.622,1.622,0,0,0,1.52-1.182l5.236-18.41,8.107,30.234a1.622,1.622,0,0,0,1.52,1.182,1.6,1.6,0,0,0,1.52-1.351l7.432-39.185,6.925,39.017a1.833,1.833,0,0,0,1.351,1.351h.169a1.623,1.623,0,0,0,1.52-1.013l6.925-19.255h33.274a1.514,1.514,0,0,0,1.52-1.52C273.037,89.838,272.193,89.162,271.348,89.162Z" transform="translate(-169.5 -61.8)" fill="#fff"/></g></g><path d="M399.642,41H381.4V352.119h18.241a12.831,12.831,0,0,0,12.837-12.837V53.837A12.831,12.831,0,0,0,399.642,41Z" transform="translate(52.174 28.25)" fill="#d2dbeb"/><g transform="translate(87.173 86.959)"><path d="M256.2,167.4c.169,4.56,19.086,100.328,19.086,100.328a8.074,8.074,0,0,0,6.081-2.027s-4.392-95.261-4.392-97.119C275.624,170.1,259.071,169.089,256.2,167.4Z" transform="translate(-121.265 28.385)" fill="#fcd2c5"/><path d="M276.011,140.827c-8.614,2.2-17.228,4.223-26.011,5.743,0,0,5.743,37.159,13.343,67.73,8.952,35.47,15.2,69.926,15.2,69.926a6.469,6.469,0,0,1,7.77-1.013s-1.52-96.612-3.04-144.412A74.746,74.746,0,0,1,276.011,140.827Z" transform="translate(-125.537 8.679)" fill="#ff4c4d"/><path d="M275.07,226.1a11.852,11.852,0,0,1-1.351-1.52s-4.9-1.182-6.418,2.365c0,0,0,4.223,1.182,5.743.676.844,4.391,4.729,6.249,5.574,1.52.676,3.716.507,6.249.169s5.574-2.027,5.4-3.547C286.048,232.009,277.1,227.955,275.07,226.1Z" transform="translate(-113.617 67.651)" fill="#fb0"/><path d="M273.178,226.895c-2.533-1.689-6.756,1.351-3.885,5.236.507.676,3.716,4.054,5.236,4.729a10.524,10.524,0,0,0,5.236.169c2.2-.338,4.729-1.689,4.56-3.04C284.156,231.624,275.711,228.753,273.178,226.895Z" transform="translate(-112.908 69.049)" fill="#fb0"/><g transform="translate(122.614 47.806)"><path d="M312.74,95.09a11.655,11.655,0,0,1-3.04,2.7c1.351-.676,1.689.338,3.209-.169.507-.338,1.858-2.871,1.351-3.209C313.416,93.739,313.078,94.414,312.74,95.09Z" transform="translate(-207.016 -69.903)" fill="#fcd2c5"/><path d="M325.246,95.8a2.856,2.856,0,0,0-1.689-1.182,15.063,15.063,0,0,0-3.716.507,63.2,63.2,0,0,0-6.249,1.351c-1.52.507-3.04,1.013-4.392,1.52a47.76,47.76,0,0,0,.845,6.756c2.534-.676,10.472-3.547,10.641-3.547,3.378-.507,3.885-1.689,3.209-2.365-.169-.169,1.858-1.182,1.351-1.858C324.908,96.979,325.415,96.3,325.246,95.8Z" transform="translate(-207.361 -69.596)" fill="#fcd2c5"/><path d="M283.75,100.116a2.724,2.724,0,0,0-1.52.507c-2.2,1.182-4.56,4.223-1.689,8.445,3.04,4.729,37.665-1.858,51.009-6.081A28,28,0,0,1,330.2,96.4C322.091,99.1,291.689,98.934,283.75,100.116Z" transform="translate(-228.021 -68.342)" fill="#fcd2c5"/><path d="M300.119,107.4c-10.3-5.743-28.713-21.282-35.47-24.491-1.182-.507-8.276,13.343-8.445,16.046-.676,6.249,30.74,18.41,42.564,20.944C303.328,120.571,312.787,114.49,300.119,107.4Z" transform="translate(-243.884 -77.649)" fill="#fcd2c5"/><path d="M308.519,109.535c-.676-.507-29.727-23.984-41.888-29.558-4.56-2.027-19.424,12.837-17.566,15.37,14.188,18.41,44.759,26.011,54.387,28.038,9.29,2.027,37.665-3.547,49.489-7.263l-2.365-9.965C345.678,107.846,311.9,109.2,308.519,109.535Z" transform="translate(-248.905 -79.788)" fill="#e4eef9"/></g><g transform="translate(0 47.918)"><path d="M184.115,87.346c-.338-.676-.507-1.52-1.351-.845-.507.338.338,3.04.845,3.378,1.52.676,1.858-.169,3.04.676A11.832,11.832,0,0,1,184.115,87.346Z" transform="translate(-171.973 -75.446)" fill="#fcd2c5"/><path d="M181.866,86.913c-.844-.169-2.871-1.013-3.547-1.013-.507,0-1.689.507-1.858,1.013a1.314,1.314,0,0,0,0,1.182c-.676.676,1.182,2.027,1.013,2.2-.845.507-.338,1.689,2.871,2.7.169,0,7.6,4.054,9.965,5.067.845-1.52,1.858-6.587,1.858-6.587a33.187,33.187,0,0,0-4.223-2.2C186.089,88.434,182.035,87.082,181.866,86.913Z" transform="translate(-176.311 -75.689)" fill="#fcd2c5"/><path d="M233.051,100.148a9.96,9.96,0,0,0-1.351-.676c-7.77-2.534-37.834-6.587-45.435-10.472a27.239,27.239,0,0,1-2.365,6.418c12.668,6.08,45.773,17.566,49.489,13.343C237.1,104.877,235.078,101.668,233.051,100.148Z" transform="translate(-171.082 -73.553)" fill="#fcd2c5"/><path d="M253.669,82.5c-7.094,2.2-27.7,14.863-38.679,19.086-13.512,5.236-5.067,12.668-.507,12.5,11.992-.676,44.759-8.107,45.1-14.526C259.918,96.859,255.02,82.165,253.669,82.5Z" transform="translate(-154.71 -78.034)" fill="#fcd2c5"/><path d="M274.3,79.931c-13.005,3.716-44.928,22.633-45.773,23.14-3.378-.845-36.652-7.094-41.043-9.29L183.6,103.24c11.148,5.4,38.51,15.032,47.8,14.357,9.8-.507,41.212-3.716,57.934-19.762C291.529,95.47,279.03,78.58,274.3,79.931Z" transform="translate(-171.289 -79.855)" fill="#e4eef9"/></g><path d="M236.2,171.209c.169,2.027,5.743,97.119,5.743,97.119a7.779,7.779,0,0,0,6.249,1.351S257.144,172.56,256.806,168C254.1,170.027,237.72,172.729,236.2,171.209Z" transform="translate(-135.046 28.798)" fill="#fcd2c5"/><path d="M231.121,125.7c-1.013,6.756,13.343,169.747,13.343,169.747a6.6,6.6,0,0,1,7.77.169s2.7-34.963,7.938-71.277c4.392-31.247,6.249-95.937,6.249-95.937C253.754,129.416,235.344,127.558,231.121,125.7Z" transform="translate(-138.581 -0.348)" fill="#ff4c4d"/><path d="M255.468,67.8c-.845.676-9.965,5.743-12.668,5.4,0,.676,2.027,6.756.338,10.81.676,3.885,11.485,7.094,14.526.507C256.481,82.663,254.961,71.347,255.468,67.8Z" transform="translate(-130.498 -40.242)" fill="#fcd2c5"/><path d="M248.9,60.322c-4.729-.338-9.459.845-10.472,5.236-.338,1.689.338,16.384,8.107,18.579,3.378,1.013,9.627-4.729,9.965-8.614l.338-5.236C257.176,65.051,254.135,60.66,248.9,60.322Z" transform="translate(-133.558 -45.432)" fill="#fcd2c5"/><g transform="matrix(1, 0, 0, 1, -297.79, -86.96)" filter="url(#e)"><path d="M267.622,77.2a9.492,9.492,0,0,1-7.263,2.534c-5.067-.338-6.925-2.2-6.925-2.2s-10.3,4.56-12.837,5.912c-16.89,9.627-13.85,150.324-8.614,186.469,1.182-.169,23.984,2.2,34.625-.169l1.182-23.477,5.067,23.477c10.979.169,26.687,1.182,29.558-4.9,1.013-33.274-6.925-159.444-7.938-163.5C288.4,77.2,267.622,77.2,267.622,77.2Z" transform="translate(157 53.19)" fill="#e4eef9"/></g><path d="M244.185,226.439s-.338.507-1.182,1.689c-1.858,2.027-10.3,6.925-10.3,9.965,0,1.52,3.209,2.871,5.743,3.04s4.9,0,6.249-.844c1.689-1.013,5.067-5.236,5.574-6.249,1.013-1.689.507-5.743.507-5.743C248.915,224.919,244.185,226.439,244.185,226.439Z" transform="translate(-137.458 68.829)" fill="#fb0"/><path d="M243.8,228.752c-2.365,2.027-10.3,5.912-10.3,8.276,0,1.351,2.7,2.365,4.9,2.534a9.636,9.636,0,0,0,5.236-.676c1.52-.845,4.223-4.392,4.729-5.236C250.728,229.428,246.168,226.894,243.8,228.752Z" transform="translate(-136.906 70.232)" fill="#fb0"/><path d="M262.188,57.808c-7.432-5.912-20.268-.338-23.646,7.432-2.534,5.743-4.729,1.689-4.56.169-.844,3.885.845,7.094,8.276,6.587,1.52-.169-3.378,1.351-3.378,1.351s7.77,16.384,20.1,12.5c3.547-1.182,6.756-4.729,6.756-4.729s-3.885.676-1.858-2.534C267.93,72.5,268.775,63.044,262.188,57.808Z" transform="translate(-136.712 -48.83)" fill="#d2dbeb"/><g transform="translate(102.336 0.404)"><path d="M256.155,53.542c-7.938-2.365-15.032-2.365-15.539-.338L236.9,65.7c1.351,5.236,21.451,12.668,28.545,9.121L269.5,61.48C270.174,59.453,264.262,55.737,256.155,53.542Z" transform="translate(-236.9 -51.724)" fill="#d2dbeb"/></g><path d="M254.892,53.369c-7.77-2.365-14.695-2.534-15.37-.338s5.067,6.081,12.837,8.445,14.695,2.534,15.37.338S262.662,55.733,254.892,53.369Z" transform="translate(-132.794 -51.484)" fill="#e4eef9"/></g><path d="M140.3,227.3a26.815,26.815,0,0,0,26.856,26.856h264.5A26.815,26.815,0,0,0,458.513,227.3V207.2H140.3Z" transform="translate(-113.951 142.767)" fill="#e4eef9"/><path d="M286.7,227.3a26.815,26.815,0,0,0,26.856,26.856H680.244A26.815,26.815,0,0,0,707.1,227.3V207.2H286.7Z" transform="translate(-13.077 142.767)" fill="#a380b9"/><path d="M522.426,201H482.9a10.136,10.136,0,1,0,0,20.268h39.523a10.136,10.136,0,1,0,0-20.268Z" transform="translate(115.013 138.495)" fill="#fff"/></g><g transform="translate(495.574 139.691)"><g transform="translate(22.324 62.622)"><path d="M348.609,137.289c0,.676,2.871,1.013,3.378.845,1.182-1.013.676-1.689,2.027-2.534a10.871,10.871,0,0,1-4.054.845C349.284,136.445,348.44,136.276,348.609,137.289Z" transform="translate(-343.685 -55.474)" fill="#fcd2c5"/><path d="M357.027,135.2a31.79,31.79,0,0,0-3.885,2.7c-1.52,1.182-4.56,4.223-4.729,4.391-.507.676-2.2,2.027-2.534,2.7a3.257,3.257,0,0,0,0,2.2,1.115,1.115,0,0,0,1.182.507c.338.844,2.365-.169,2.365,0,0,1.013,1.351,1.182,3.716-1.182.169-.169,7.094-4.9,9.121-6.587A47.511,47.511,0,0,0,357.027,135.2Z" transform="translate(-345.685 -55.75)" fill="#fcd2c5"/><path d="M387.241,90.929c-2.365-1.351-17.735-3.716-17.9-2.365-1.351,7.432.676,31.416-.676,43.07-1.52,14.357,8.952,10.3,10.81,6.08C384.369,126.568,392.646,93.969,387.241,90.929Z" transform="translate(-329.957 -88.161)" fill="#fcd2c5"/><path d="M387.662,90.929c-2.365-1.351-17.735-3.716-17.9-2.365-1.013,5.236-.676,18.917-1.858,30.234a107.463,107.463,0,0,0,12.837,2.365c1.52.169,6.249.844,7.77.844C391.884,108.664,391.209,92.956,387.662,90.929Z" transform="translate(-330.378 -88.161)" fill="#e4eef9"/><path d="M383.278,113.937c-.507.338-1.013.507-1.182.844-5.743,5.743-22.971,30.571-29.9,35.639a23.542,23.542,0,0,1,4.56,5.067c11.148-8.445,36.483-32.767,34.456-38C389.359,112.755,385.474,112.924,383.278,113.937Z" transform="translate(-341.195 -70.801)" fill="#fcd2c5"/></g><g transform="translate(0 57.114)"><path d="M360.054,95.2a10.344,10.344,0,0,0-10.3-10.3h-.169a10.344,10.344,0,0,0-10.3,10.3V247.722l-.676.507a16.887,16.887,0,0,0-5.574,17.4,17.163,17.163,0,1,0,27.7-17.4l-.676-.507v-3.04H376.1v-2.534H360.054v-6.587h10.134v-2.534H360.054v-6.587h10.134v-2.534H360.054V217.32h10.134v-2.534H360.054V208.2H376.1v-2.534H360.054v-6.587h10.134v-2.534H360.054v-6.587h10.134v-2.534H360.054v-6.587h10.134V178.3H360.054v-6.587H376.1v-2.534H360.054V162.6h10.134v-2.534H360.054v-6.587h10.134v-2.534H360.054v-6.756h10.134v-2.534H360.054v-6.587H376.1v-2.534H360.054v-6.587h10.134V123.41H360.054v-6.587h10.134v-2.534H360.054V107.7h10.134v-2.534H360.054V98.581H376.1V96.048H360.054Z" transform="translate(-332.467 -84.9)" fill="#fff"/><g transform="translate(14.412 24.66)"><rect width="6.081" height="147.959" fill="#ff4c4d"/></g><path d="M345.556,185.7a6.756,6.756,0,1,0,6.756,6.756A6.776,6.776,0,0,0,345.556,185.7Z" transform="translate(-328.104 -15.446)" fill="#ff4c4d"/></g><path d="M395.2,172.209c.169,2.027,5.743,100.5,5.743,100.5a7.779,7.779,0,0,0,6.249,1.351s8.952-100.5,8.614-105.058C413.1,171.027,396.72,173.9,395.2,172.209Z" transform="translate(-289.243 30.162)" fill="#fcd2c5"/><path d="M409.266,231.571,404.03,228.7s-1.182,1.689-2.027,2.7c-1.858,2.027-10.3,3.547-10.3,6.587,0,1.52,3.209,2.871,5.743,3.04s4.9,0,6.249-.845c1.689-1.013,5.067-1.858,5.574-2.871a4.131,4.131,0,0,0,.169-3.547A4.278,4.278,0,0,0,409.266,231.571Z" transform="translate(-291.655 71.297)" fill="#194767"/><path d="M397.7,231.609a7.719,7.719,0,0,0,3.04,2.871c1.182.676,4.392-.507,4.392-.507a16.209,16.209,0,0,0,.338-2.871l-5.912-2.7A9.521,9.521,0,0,1,397.7,231.609Z" transform="translate(-287.521 71.09)" fill="#fcd2c5"/><path d="M390.121,126.7c-1.013,6.756,13.343,173.125,13.343,173.125,0,.338,5.236,3.04,7.77.169,0,0,2.7-38.341,7.938-74.655,4.392-31.247,6.25-95.937,6.25-95.937C412.754,130.416,394.343,128.558,390.121,126.7Z" transform="translate(-292.778 1.016)" fill="#ff894d"/><path d="M378.9,172.209c.169,2.027,5.743,100.5,5.743,100.5a7.778,7.778,0,0,0,6.249,1.351s8.952-100.5,8.614-105.058C396.8,171.027,380.42,173.9,378.9,172.209Z" transform="translate(-300.474 30.162)" fill="#fcd2c5"/><path d="M392.966,231.571,387.73,228.7s-1.182,1.689-2.027,2.7c-1.858,2.027-10.3,3.547-10.3,6.587,0,1.52,3.209,2.871,5.743,3.04a16.422,16.422,0,0,0,6.249-.845c1.52-.507,5.067-1.858,5.574-2.871a4.131,4.131,0,0,0,.169-3.547A4.277,4.277,0,0,0,392.966,231.571Z" transform="translate(-302.886 71.297)" fill="#194767"/><path d="M381.4,231.609a7.719,7.719,0,0,0,3.04,2.871c1.182.676,4.391-.507,4.391-.507a16.206,16.206,0,0,0,.338-2.871l-5.912-2.7A9.52,9.52,0,0,1,381.4,231.609Z" transform="translate(-298.752 71.09)" fill="#fcd2c5"/><path d="M373.821,126.7c-1.013,6.756,13.343,173.125,13.343,173.125,0,.338,5.236,3.04,7.77.169,0,0,2.7-38.341,7.938-74.655,4.391-31.247,6.249-95.937,6.249-95.937C396.454,130.416,378.043,128.558,373.821,126.7Z" transform="translate(-304.009 1.016)" fill="#ff894d"/><g transform="matrix(1, 0, 0, 1, -495.57, -139.69)" filter="url(#g)"><path d="M408.918,79.451c-2.7-.676-10.979-1.351-10.979-1.351s-4.9,5.743-8.614,6.418c-2.534.507-5.067-1.858-5.067-1.858s-8.783,4.054-10.3,5.236c-5.912,4.729-5.067,11.148-4.9,16.384.169,5.4,8.276,121.61,4.392,146.945a30.817,30.817,0,0,0,11.317,2.534l5.4-15.37,4.9,16.046c15.539,1.351,36.99,1.52,51.515-6.081,0,0,1.858-103.031-18.917-148.8C424.457,92.963,419.558,81.985,408.918,79.451Z" transform="translate(188.22 107.22)" fill="#fff"/></g><path d="M376.8,76.394c.169.676,2.871,8.107,1.858,12.33,1.182,3.716,11.823,2.2,13.85-4.56-1.52-1.689-3.885-11.316-3.885-14.863C387.779,70.145,379.334,76.394,376.8,76.394Z" transform="translate(-301.921 -38.535)" fill="#fcd2c5"/><path d="M381.03,62.608c-4.729.338-9.29,2.027-9.627,6.756-.169,1.689,2.534,16.046,10.641,17.228,3.378.507,8.952-6.08,8.614-9.965l-.338-5.236C389.813,66.324,386.1,62.27,381.03,62.608Z" transform="translate(-305.645 -43.159)" fill="#fcd2c5"/><path d="M392.4,61.489c-9.458-6.925-17.228.338-17.735,2.871-7.938,2.7-4.56,14.526-.507,15.708-3.04-8.614,2.533-12.33,2.533-12.33,11.148-1.689,16.89,10.979,16.552,14.526C393.412,82.433,406.248,71.792,392.4,61.489Z" transform="translate(-306.709 -45.925)" fill="#ff4c4d"/><path d="M422.6,78.3c-3.547-2.027-6.081-2.2-9.8-11.317-12.161-30.4-34.287-9.29-31.078-1.351.845,2.027,3.209,2.871,4.223.169,1.689-4.391,10.641-10.81,10.81,9.965,0,5.4-4.391,14.019,12.668,18.579,15.37,4.054,5.743,10.641,7.77,14.188C422.1,117.658,440.506,88.607,422.6,78.3Z" transform="translate(-298.742 -51.085)" fill="#ff4c4d"/><path d="M384.723,58.714a2.825,2.825,0,0,0-2.027-.169,4.31,4.31,0,0,0-2.2,1.52,17.3,17.3,0,0,1,6.756,3.378C387.763,61.586,387.594,59.9,384.723,58.714Z" transform="translate(-299.372 -46.021)" fill="#194767"/><g transform="translate(8.14 51.82)"><path d="M342.915,105.511c-.338.507,1.689,2.534,2.365,2.7,1.52-.169,1.52-1.013,3.04-.845a14.336,14.336,0,0,1-3.716-1.52C343.929,105.173,343.253,104.5,342.915,105.511Z" transform="translate(-333.434 -65.76)" fill="#fcd2c5"/><path d="M348.457,106.369c-1.858.169-6.081.844-6.418.844a18.94,18.94,0,0,0-3.547.676,3.1,3.1,0,0,0-1.182,1.689c-.169.676.676,1.013.676,1.013-.338.845,2.027,1.182,1.858,1.351-.507.845.507,1.689,3.716,1.013.169,0,8.614,0,11.148-.169a27.2,27.2,0,0,0-1.52-6.587A41.2,41.2,0,0,1,348.457,106.369Z" transform="translate(-337.287 -64.929)" fill="#fcd2c5"/><path d="M410.283,84.054c-5.236-3.547-30.065,18.917-38.848,27.193-3.378,3.209-3.04,12.668,10.134,7.094,10.81-4.56,26.349-14.695,32.767-18.41C419.235,97.059,412.479,85.574,410.283,84.054Z" transform="translate(-315 -80.448)" fill="#fcd2c5"/><path d="M403.687,81.824c-4.223-.844-17.4,7.6-26.687,17.566.845,1.351,3.885,4.9,4.9,6.081a118.721,118.721,0,0,0,8.783,9.627c9.29-4.223,16.89-10.3,20.1-14.357C417.03,92.3,410.612,83.175,403.687,81.824Z" transform="translate(-309.923 -81.765)" fill="#fff"/><path d="M391.428,99.116c-7.938,1.351-36.483,11.992-44.928,12.161a21.511,21.511,0,0,1,.845,6.756c14.019-.676,46.786-5.912,49.32-10.641A5.567,5.567,0,0,0,391.428,99.116Z" transform="translate(-330.939 -69.838)" fill="#fcd2c5"/></g><g transform="translate(65.251 5.303)"><path d="M389.342,55.872c-7.432-2.2-13.85-2.2-14.526,0l-3.716,12.5a36.986,36.986,0,0,1,14.357.845,28.985,28.985,0,0,1,12.5,6.925l3.716-12.5C402.347,61.615,396.773,58.068,389.342,55.872Z" transform="translate(-371.1 -54.225)" fill="#fff"/></g><path d="M383.127,66.719a7.522,7.522,0,0,0-2.027,1.013,43.361,43.361,0,0,0,3.04,5.574c1.182-.507,2.365-2.7,2.027-3.885C386,67.9,384.309,66.382,383.127,66.719Z" transform="translate(-298.958 -40.346)" fill="#fcd2c5"/></g><g transform="translate(43.045 106.24)"><g transform="translate(129.215 64.12)"><path d="M127.716,153.889A9.348,9.348,0,0,1,124,152.2c1.182,1.013.507,1.689,1.52,2.871.507.338,3.378.507,3.547-.169C129.236,154.058,128.391,154.058,127.716,153.889Z" transform="translate(-86.82 -65.489)" fill="#fcd2c5"/><path d="M133.006,160.414c-.169-.169-2.534-3.716-3.885-5.236a31.9,31.9,0,0,0-3.378-3.378s-4.56,2.365-5.743,3.547c1.689,2.027,7.6,8.107,7.6,8.276,1.858,2.871,3.209,2.871,3.378,1.858,0-.169,1.858,1.182,2.365.338a.951.951,0,0,0,1.182-.338,3.221,3.221,0,0,0,.338-2.2C134.864,162.779,133.343,161.09,133.006,160.414Z" transform="translate(-89.576 -65.765)" fill="#fcd2c5"/><path d="M106.895,102.166c-5.912,2.027-4.054,35.638-1.351,47.462,1.013,4.392,10.641,10.472,11.823-3.885,1.013-11.654,7.432-34.963,7.6-42.395C124.967,101.828,109.6,101.321,106.895,102.166Z" transform="translate(-101.299 -100.245)" fill="#fcd2c5"/><path d="M113.17,127.807c-2.027-1.52-5.743-2.365-8.445,1.858-3.04,4.729,17.4,33.443,26.687,43.915a21.347,21.347,0,0,1,5.4-4.054c-5.743-6.249-18.073-33.949-22.633-40.706A2.867,2.867,0,0,0,113.17,127.807Z" transform="translate(-100.312 -83.153)" fill="#fcd2c5"/><path d="M118.73,148.219a13.126,13.126,0,0,0,.338-2.7c.507-5.574,2.534-13.85,4.223-21.957,1.858-7.938,3.547-15.539,3.716-19.424a2.515,2.515,0,0,0-.676-1.52c-2.2-1.689-16.384-2.2-19.086-1.351-7.938,2.534-5.067,38.51-3.04,47.968,1.858,9.121,18.073,32.26,25.842,41.212l7.938-6.081c-3.209-3.547-8.952-15.37-13.681-24.829C122.446,155.313,120.419,151.259,118.73,148.219Z" transform="translate(-101.987 -100.862)" fill="#d3e1ea"/></g><path d="M29.226,212.081a4.416,4.416,0,0,0-3.209,1.52c-.676.845-.169,4.223-.507,6.249-.169,1.52.507,3.716,1.689,6.081s3.547,4.729,4.9,4.223c2.7-1.182.845-9.627,2.027-11.992.676-1.351,1.689-3.04,1.689-3.04l-4.729-3.716C31.253,211.406,30.578,211.237,29.226,212.081Z" transform="translate(-25.485 39.415)" fill="#a380b9"/><path d="M27.7,212.362s.169,3.547,1.182,4.223a10.238,10.238,0,0,0,3.885,1.689,11.013,11.013,0,0,1,2.2-2.871l-4.9-4.392C30.065,210.842,29.051,211.517,27.7,212.362Z" transform="translate(-23.958 39.134)" fill="#fcd2c5"/><path d="M76.644,215.272C71.577,227.77,28,268.307,28,268.307a7.185,7.185,0,0,0,5.743,4.56s53.88-29.558,63.845-48.306c20.775-39.185,41.381-80.229,42.395-83.607-4.56,0-22.126-5.743-33.443-11.654C106.54,129.3,88.3,185.882,76.644,215.272Z" transform="translate(-23.752 -17.148)" fill="#ff894d"/><path d="M89,168c-.338,4.56,8.614,105.058,8.614,105.058a8.588,8.588,0,0,0,6.249-1.351s5.574-98.47,5.743-100.5C107.921,172.729,91.706,170.027,89,168Z" transform="translate(18.275 9.517)" fill="#fcd2c5"/><path d="M101.736,230.4c-.844-1.013-2.027-2.7-2.027-2.7l-5.236,2.871s-.507.507-.169,2.2a4.96,4.96,0,0,0,.169,3.547c.507,1.013,4.054,2.365,5.574,2.871a16.421,16.421,0,0,0,6.249.845c2.534-.169,5.743-1.52,5.743-3.04C112.039,234.118,103.594,232.429,101.736,230.4Z" transform="translate(21.758 50.652)" fill="#a380b9"/><path d="M94,230.134s.169,1.182.338,2.871c0,0,3.209,1.182,4.391.507a7.719,7.719,0,0,0,3.04-2.871,12.449,12.449,0,0,1-1.858-3.04Z" transform="translate(21.724 50.583)" fill="#fcd2c5"/><path d="M85.3,128.5v33.1c2.534,2.027,1.858,31.585,6.249,62.832,5.236,36.145,7.938,74.655,7.938,74.655,2.534,2.871,7.77,0,7.77-.169,0,0,14.357-166.369,13.343-173.125C116.378,127.489,97.968,129.347,85.3,128.5Z" transform="translate(15.73 -19.56)" fill="#ff894d"/><path d="M106.3,80c-.338,3.547-3.885,12.837-5.4,14.357,1.182,7.094,11.485,9.627,13.174,6.08-.676-4.391,3.04-11.316,3.209-12.161C114.581,88.107,106.981,80.845,106.3,80Z" transform="translate(26.478 -51.118)" fill="#fcd2c5"/><g transform="matrix(1, 0, 0, 1, -43.04, -106.24)" filter="url(#i)"><path d="M145.739,94.582s-2.871,2.2-5.236,1.351c-3.547-1.182-7.938-7.432-7.938-7.432s-8.276.169-11.148,0c-8.445-.169-12.33,5.236-14.695,11.992-.844,2.534-39.692,83.776-52.022,133.264,0,0,28.713,23.477,90.532,23.477,0,0,5.574-122.286,13.174-139.345,2.2-4.9,2.534-11.485-2.871-16.89C154.015,99.649,145.739,94.582,145.739,94.582Z" transform="translate(37.69 60.98)" fill="#e4eef9"/></g><g transform="translate(134.432 109.956)"><path d="M138.39,128H109.17a4.162,4.162,0,0,0-4.054,3.209,3.835,3.835,0,0,0,3.716,4.391h2.534l-.169,57.258a12.33,12.33,0,1,0,24.66,0l-.169-57.258h2.365a4.162,4.162,0,0,0,4.054-3.209A3.835,3.835,0,0,0,138.39,128Z" transform="translate(-105.076 -128)" fill="#ff894d"/><path d="M112.2,140.1v44.253a7.694,7.694,0,0,0,1.858,4.9,6.634,6.634,0,0,0,4.729,1.858,7.46,7.46,0,0,0,4.729-2.027,6.934,6.934,0,0,0,1.858-4.729l-.169-44.253Z" transform="translate(-100.168 -119.663)" fill="#ff894d"/></g><path d="M100.335,92.6c-18.073,4.9-19.424,40.03-13.85,51.515,3.885,8.107,16.721,26.349,29.9,34.794-9.121-14.357-8.783-36.652-10.81-52.7C104.051,114.557,100,103.579,100.335,92.6Z" transform="translate(14.545 -42.436)" fill="#d3e1ea"/><g transform="translate(102.405 47.436)"><path d="M111.516,144.389A9.348,9.348,0,0,1,107.8,142.7c1.182,1.013.338,1.689,1.351,2.871.507.338,3.378.507,3.547-.169C113.036,144.558,112.191,144.558,111.516,144.389Z" transform="translate(-71.172 -55.351)" fill="#fcd2c5"/><path d="M116.737,150.914c-.169-.169-2.534-3.716-3.716-5.236-1.013-1.182-2.2-2.365-3.209-3.378,0,0-4.729,2.365-5.912,3.547,1.689,2.027,7.432,8.107,7.6,8.276,1.858,2.871,3.04,2.871,3.378,2.027,0-.169,1.858,1.182,2.365.338a.951.951,0,0,0,1.182-.338,4.5,4.5,0,0,0,.507-2.027A21.509,21.509,0,0,1,116.737,150.914Z" transform="translate(-73.86 -55.627)" fill="#fcd2c5"/><path d="M91.6,92.45c-5.912,2.027-4.56,35.639-1.858,47.293,1.013,4.56,10.472,10.641,11.823-3.716,1.182-11.654,7.938-34.794,8.107-42.226C109.67,92.281,94.131,91.606,91.6,92.45Z" transform="translate(-85.204 -90.229)" fill="#fcd2c5"/><path d="M97.373,118.13c-2.027-1.52-5.743-2.534-8.445,1.858-3.04,4.729,16.89,33.612,26.18,44.253a36.989,36.989,0,0,1,5.574-4.054c-5.743-6.249-17.735-34.118-22.126-40.874A3.947,3.947,0,0,0,97.373,118.13Z" transform="translate(-84.391 -73.176)" fill="#fcd2c5"/><path d="M102.3,138.3c.169-.845.338-1.689.507-2.7.676-5.574,8.445-37.328,8.445-41.212a1.646,1.646,0,0,0-.676-1.52c-2.2-1.689-16.384-2.365-18.917-1.52-7.938,2.534-5.574,38.51-3.716,47.8,1.689,9.121,17.566,32.429,25.335,41.55l7.938-5.912c-3.209-3.547-8.783-15.539-13.343-25C105.852,145.4,103.825,141.344,102.3,138.3Z" transform="translate(-86.114 -90.985)" fill="#e4eef9"/></g><path d="M112.1,85.69c.507,3.716,3.04,7.938,1.351,11.992s-3.547,5.574-3.209,16.046c.676,15.032-9.965,28.713-7.263,31.078,2.365,2.027,13.343-3.716,17.735-19.255.845-2.7,1.858-8.445.507-13.006-.844-2.7-1.689-8.952,1.689-16.215a27.031,27.031,0,0,0,2.365-14.695C123.755,77.752,112.1,85.69,112.1,85.69Z" transform="translate(27.608 -50.727)" fill="#330f49"/><path d="M116.988,73.862c-5.067-1.013-10.134,3.209-11.148,8.276l-1.013,5.236c-.676,3.885,4.054,10.81,7.432,10.81,8.107-.169,12.5-14.188,12.5-15.877C125.095,77.578,121.717,74.706,116.988,73.862Z" transform="translate(29.139 -55.451)" fill="#fcd2c5"/><path d="M131.622,73.814s.169-.845-4.054-3.716c-3.209-2.365-9.965-3.716-15.877.676a23.57,23.57,0,0,0-9.965,21.282,20.194,20.194,0,0,1-6.418,17.566c-4.391,4.054-6.08,10.472-6.418,13.512-2.027,18.242,10.472,30.065,15.032,29.389,5.067-.845-2.7-20.775,6.418-35.639,6.418-10.472,3.378-14.695,3.378-19.762-.169-6.587,4.223-14.188,7.432-16.721,3.547-2.7,9.121-1.689,9.121-1.689s8.276,3.716,2.365,16.215c5.067-2.871,8.276-15.032,3.547-19.255A7.724,7.724,0,0,0,131.622,73.814Z" transform="translate(18.051 -59.457)" fill="#330f49"/><path d="M103.831,79.84a4.609,4.609,0,0,0,1.689,4.223c.845-1.182,2.7-3.547,3.716-5.236a2.9,2.9,0,0,0-1.858-1.182C106.026,77.138,104.337,78.489,103.831,79.84Z" transform="translate(28.446 -52.816)" fill="#fcd2c5"/><g transform="translate(123.831)"><path d="M114.339,62.9c-8.614,0-15.539,2.027-15.539,4.223,0,0,.169,12.161.169,13.006,0-.507,6.925-.845,15.539-1.013,8.614,0,15.539.338,15.539.676,0-.845-.169-13.006-.169-13.006C130.047,64.589,122.953,62.9,114.339,62.9Z" transform="translate(-98.8 -62.9)" fill="#e4eef9"/></g></g><g transform="translate(196.901 319.733)"><g transform="translate(47.968)"><path d="M178.29,189.3H149.07a4.162,4.162,0,0,0-4.054,3.209,3.835,3.835,0,0,0,3.716,4.391h2.534l-.169,57.258a12.33,12.33,0,1,0,24.66,0l-.169-57.258h2.365a4.162,4.162,0,0,0,4.054-3.209A3.663,3.663,0,0,0,178.29,189.3Z" transform="translate(-144.976 -189.3)" fill="#fff"/><path d="M152.2,201.4v44.253a7.694,7.694,0,0,0,1.858,4.9,6.634,6.634,0,0,0,4.729,1.858,7.46,7.46,0,0,0,4.729-2.027,6.934,6.934,0,0,0,1.858-4.729l-.169-44.253Z" transform="translate(-139.999 -180.963)" fill="#ff4c4d"/></g><path d="M149.89,189.3H120.67a4.162,4.162,0,0,0-4.054,3.209,3.835,3.835,0,0,0,3.716,4.391h2.534l-.169,57.258a12.33,12.33,0,1,0,24.66,0l-.169-57.258h2.365a4.162,4.162,0,0,0,4.054-3.209A3.663,3.663,0,0,0,149.89,189.3Z" transform="translate(-116.576 -189.3)" fill="#fff"/><path d="M123.8,201.4v44.253a7.694,7.694,0,0,0,1.858,4.9,6.634,6.634,0,0,0,4.729,1.858,7.46,7.46,0,0,0,4.729-2.027,6.934,6.934,0,0,0,1.858-4.729l-.169-44.253Z" transform="translate(-111.599 -180.963)" fill="#330f49"/></g></svg>